<?xml version="1.0" standalone="no"?>
<!DOCTYPE svg PUBLIC "-//W3C//DTD SVG 20010904//EN"
 "http://www.w3.org/TR/2001/REC-SVG-20010904/DTD/svg10.dtd">
<svg version="1.0" xmlns="http://www.w3.org/2000/svg"
 width="331.000000pt" height="320.000000pt" viewBox="0 0 331.000000 320.000000"
 preserveAspectRatio="xMidYMid meet">
<metadata>
Created by potrace 1.16, written by Peter Selinger 2001-2019
</metadata>
<g transform="translate(0.000000,320.000000) scale(0.100000,-0.100000)"
fill="#000000" stroke="none">
<path d="M30 1600 l0 -1600 1640 0 1640 0 0 1600 0 1600 -1640 0 -1640 0 0
-1600z m343 -678 c11 -11 16 -25 13 -31 -4 -6 -14 -3 -26 9 -28 28 -94 27
-114 -2 -23 -32 -5 -53 63 -72 94 -26 124 -78 78 -132 -18 -20 -35 -28 -73
-31 -43 -5 -54 -2 -82 22 -18 15 -32 33 -32 41 0 20 10 17 36 -11 30 -32 101
-35 129 -5 25 28 13 65 -27 79 -125 46 -123 45 -126 79 -5 55 34 85 102 78 21
-3 48 -13 59 -24z m307 -22 l0 -49 30 5 c68 14 100 -18 100 -102 0 -34 -6 -51
-25 -69 -25 -26 -78 -34 -90 -15 -5 8 -11 7 -21 -1 -12 -10 -14 10 -14 135 0
91 4 146 10 146 6 0 10 -22 10 -50z m926 -61 c14 -16 19 -36 19 -81 0 -52 -3
-63 -25 -80 -18 -15 -34 -19 -62 -15 l-37 5 -3 -47 c-2 -25 -7 -46 -13 -46 -6
0 -11 55 -13 140 l-3 140 59 3 c49 2 62 -1 78 -19z m394 11 c24 -13 42 -77 34
-119 -14 -66 -93 -93 -139 -46 -33 32 -35 110 -4 149 22 28 73 35 109 16z
m-1621 -321 c31 -29 20 -35 -28 -15 -77 30 -121 -10 -121 -112 0 -53 4 -67 25
-87 28 -29 70 -32 103 -9 29 20 49 8 26 -17 -25 -28 -80 -35 -120 -16 -49 24
-67 66 -62 150 3 63 7 72 36 98 41 37 106 40 141 8z m171 -69 c5 0 18 -10 30
-22 15 -16 20 -35 20 -74 0 -63 -21 -92 -71 -100 -28 -5 -41 -1 -64 19 -26 22
-29 31 -29 80 0 40 5 61 18 76 18 20 51 31 74 25 8 -2 18 -4 22 -4z m214 -15
c8 -10 15 -9 37 7 22 16 33 18 56 11 39 -13 53 -46 53 -125 0 -54 -3 -68 -15
-68 -12 0 -15 15 -15 73 0 78 -9 97 -47 97 -31 0 -43 -28 -43 -104 0 -51 -3
-66 -15 -66 -11 0 -15 17 -17 76 -3 88 -17 107 -62 86 -25 -11 -26 -16 -26
-87 0 -60 -3 -75 -15 -75 -12 0 -15 17 -15 94 l0 95 30 -1 c17 -1 33 2 37 6 9
9 46 -3 57 -19z m295 9 c22 -16 26 -16 53 1 42 25 84 6 98 -44 16 -57 13 -141
-5 -141 -12 0 -15 14 -15 66 0 76 -12 104 -43 104 -38 0 -47 -19 -47 -97 0
-58 -3 -73 -15 -73 -12 0 -15 14 -15 66 0 76 -12 104 -43 104 -38 0 -47 -19
-47 -97 0 -58 -3 -73 -15 -73 -12 0 -15 17 -15 96 0 86 2 95 18 90 9 -3 24 -1
32 4 21 14 32 12 59 -6z m333 -13 c10 -9 20 -31 24 -49 l7 -32 -66 0 c-36 0
-68 -4 -71 -8 -3 -4 1 -19 8 -33 11 -21 18 -24 64 -23 58 2 66 -8 23 -26 -38
-15 -87 -5 -106 23 -15 22 -20 101 -9 132 9 22 63 46 89 38 11 -3 28 -13 37
-22z m530 0 c9 -9 18 -29 20 -46 l3 -30 -67 -3 c-59 -3 -68 -5 -68 -22 0 -34
29 -53 77 -47 46 5 56 -5 22 -24 -28 -14 -82 -4 -104 21 -27 30 -30 99 -6 137
28 45 85 51 123 14z"/>
</g>
</svg>
