<?xml version="1.0" standalone="no"?>
<!DOCTYPE svg PUBLIC "-//W3C//DTD SVG 20010904//EN"
 "http://www.w3.org/TR/2001/REC-SVG-20010904/DTD/svg10.dtd">
<svg version="1.0" xmlns="http://www.w3.org/2000/svg"
 width="200.000000pt" height="200.000000pt" viewBox="0 0 200.000000 200.000000"
 preserveAspectRatio="xMidYMid meet">
<metadata>
Created by potrace 1.16, written by Peter Selinger 2001-2019
</metadata>
<g transform="translate(0.000000,200.000000) scale(0.100000,-0.100000)"
fill="#000000" stroke="none">
<path d="M809 1583 c-67 -173 -379 -1004 -379 -1010 0 -10 257 -179 267 -176
5 1 136 56 293 123 157 67 357 151 445 187 88 36 164 70 170 74 11 11 125 322
119 328 -2 2 -60 -20 -130 -49 -82 -35 -128 -50 -132 -43 -4 6 -90 142 -192
302 l-185 291 -133 0 -132 0 -11 -27z m311 -473 c61 -101 112 -188 113 -192 2
-8 -423 -192 -428 -186 -6 8 188 579 195 572 4 -5 58 -92 120 -194z"/>
</g>
</svg>
