<?xml version="1.0" standalone="no"?>
<!DOCTYPE svg PUBLIC "-//W3C//DTD SVG 20010904//EN"
 "http://www.w3.org/TR/2001/REC-SVG-20010904/DTD/svg10.dtd">
<svg version="1.0" xmlns="http://www.w3.org/2000/svg"
 width="1200.000000pt" height="627.000000pt" viewBox="0 0 1200.000000 627.000000"
 preserveAspectRatio="xMidYMid meet">
<metadata>
Created by potrace 1.16, written by Peter Selinger 2001-2019
</metadata>
<g transform="translate(0.000000,627.000000) scale(0.100000,-0.100000)"
fill="#000000" stroke="none">
<path d="M1770 4495 c0 -3 207 -333 461 -734 l461 -729 251 110 c139 61 260
112 270 115 9 3 17 10 17 15 0 5 -194 284 -431 619 l-430 609 -300 0 c-164 0
-299 -2 -299 -5z"/>
<path d="M1775 4299 c-3 -8 -171 -457 -375 -998 -203 -542 -368 -986 -367
-987 2 -2 746 322 752 327 4 5 365 1074 365 1082 0 5 -356 574 -366 586 -2 2
-6 -2 -9 -10z"/>
<path d="M8120 3705 l0 -105 95 0 95 0 0 105 0 105 -95 0 -95 0 0 -105z"/>
<path d="M4461 3778 c-5 -13 -113 -286 -241 -608 -128 -322 -236 -595 -241
-607 -8 -23 -8 -23 95 -23 l104 0 69 173 69 172 246 3 245 2 69 -175 69 -175
103 0 c56 0 102 3 102 7 0 4 -111 287 -247 630 l-248 623 -93 0 c-87 0 -93 -1
-101 -22z m188 -489 c45 -113 81 -209 81 -212 0 -4 -74 -7 -165 -7 -133 0
-165 3 -165 14 0 7 32 94 71 192 39 99 75 190 80 203 5 13 11 22 13 20 2 -2
41 -97 85 -210z"/>
<path d="M7000 3170 l0 -630 278 0 c246 0 288 2 357 20 162 41 245 126 286
290 20 78 20 563 0 640 -44 177 -147 269 -333 300 -35 5 -181 10 -325 10
l-263 0 0 -630z m588 425 c67 -20 116 -63 139 -123 16 -41 18 -80 18 -302 0
-288 -7 -323 -71 -379 -55 -49 -121 -62 -311 -64 l-168 -2 -3 435 c-1 239 0
441 3 449 8 20 317 8 393 -14z"/>
<path d="M10875 3659 c-27 -5 -60 -12 -73 -14 l-23 -6 3 -477 c3 -472 3 -477
25 -519 13 -23 39 -54 60 -70 33 -26 45 -28 135 -31 l98 -4 0 91 0 90 -67 3
-68 3 0 270 0 270 78 3 77 3 0 79 0 80 -80 0 -80 0 0 120 c0 135 7 125 -85
109z"/>
<path d="M10200 3425 c-105 -33 -195 -124 -241 -243 -27 -72 -37 -234 -19
-324 35 -183 156 -304 330 -331 136 -21 242 12 349 110 l63 56 -39 34 c-21 18
-53 45 -71 60 l-33 26 -42 -40 c-58 -56 -96 -73 -163 -73 -107 0 -178 57 -205
162 -18 74 -8 244 18 293 39 75 105 115 187 115 62 0 92 -14 157 -70 l55 -48
69 62 68 62 -59 52 c-32 29 -84 65 -114 80 -48 24 -68 27 -160 29 -69 2 -120
-2 -150 -12z"/>
<path d="M5490 3414 c-36 -10 -56 -11 -58 -4 -2 6 -40 10 -93 10 l-89 0 0
-640 0 -640 90 0 90 0 0 205 c0 113 3 205 8 205 4 0 25 -7 47 -15 55 -19 191
-19 253 1 112 37 197 135 226 265 21 89 21 260 0 350 -48 210 -251 323 -474
263z m210 -189 c68 -35 92 -101 93 -255 0 -123 -12 -171 -56 -219 -74 -81
-231 -62 -281 34 -19 35 -21 58 -21 190 0 164 9 194 66 237 50 37 139 43 199
13z"/>
<path d="M6355 3414 c-34 -11 -51 -12 -53 -5 -2 7 -37 11 -93 11 l-89 0 0
-640 0 -640 90 0 90 0 0 206 c0 186 2 206 16 200 95 -36 240 -34 325 5 120 56
182 157 201 331 29 256 -40 431 -199 510 -56 27 -78 32 -152 35 -58 2 -102 -2
-136 -13z m215 -193 c23 -12 43 -34 60 -67 23 -45 25 -59 25 -184 0 -125 -2
-138 -25 -180 -66 -118 -248 -118 -307 0 -21 39 -23 59 -23 182 0 154 13 204
60 238 57 41 141 45 210 11z"/>
<path d="M8120 2985 l0 -445 95 0 95 0 0 445 0 445 -95 0 -95 0 0 -445z"/>
<path d="M8738 3416 c-27 -7 -48 -9 -48 -4 0 4 -43 8 -95 8 l-95 0 0 -440 0
-440 95 0 95 0 0 311 c0 294 1 312 20 339 39 54 151 77 227 45 20 -8 37 -14
38 -13 2 2 21 40 44 85 l41 82 -66 21 c-76 23 -183 26 -256 6z"/>
<path d="M9357 3420 c-107 -27 -193 -97 -238 -194 -56 -119 -59 -344 -8 -481
38 -102 142 -187 261 -215 105 -24 249 -4 331 45 50 29 124 91 117 97 -17 14
-127 96 -138 102 -8 5 -26 -4 -46 -22 -46 -40 -96 -55 -170 -50 -69 4 -130 31
-159 70 -20 27 -48 117 -40 131 2 4 130 7 284 7 l279 0 0 73 c-1 229 -60 347
-209 415 -44 20 -75 26 -141 29 -47 1 -102 -2 -123 -7z m193 -190 c45 -23 68
-54 80 -105 l8 -35 -184 0 c-101 0 -184 2 -184 5 0 14 33 81 48 99 48 54 162
72 232 36z"/>
<path d="M2265 2754 c-742 -322 -1359 -589 -1369 -593 -15 -6 41 -49 276 -209
l295 -201 922 392 923 392 144 365 c79 201 151 382 159 403 8 20 11 37 7 37
-4 0 -614 -264 -1357 -586z"/>
</g>
</svg>
