<?xml version="1.0" standalone="no"?>
<!DOCTYPE svg PUBLIC "-//W3C//DTD SVG 20010904//EN"
 "http://www.w3.org/TR/2001/REC-SVG-20010904/DTD/svg10.dtd">
<svg version="1.0" xmlns="http://www.w3.org/2000/svg"
 width="690.000000pt" height="690.000000pt" viewBox="0 0 690.000000 690.000000"
 preserveAspectRatio="xMidYMid meet">
<metadata>
Created by potrace 1.16, written by Peter Selinger 2001-2019
</metadata>
<g transform="translate(0.000000,690.000000) scale(0.100000,-0.100000)"
fill="#000000" stroke="none">
<path d="M2745 6176 c-24 -10 -30 -19 -30 -42 0 -25 -4 -29 -32 -32 -25 -3
-34 -9 -42 -34 -15 -43 -14 -45 14 -52 18 -5 25 -13 25 -30 0 -14 -6 -26 -12
-29 -9 -3 -2 -16 19 -38 31 -31 33 -32 46 -15 11 15 17 17 35 7 12 -6 22 -18
22 -26 0 -17 18 -19 55 -5 18 7 25 16 23 28 -4 26 19 51 41 45 22 -5 26 0 35
44 6 26 4 32 -12 38 -28 8 -36 34 -17 55 13 15 12 19 -14 44 -25 24 -31 26
-49 15 -25 -16 -52 -5 -52 21 0 23 -13 24 -55 6z"/>
<path d="M3329 6065 c-12 -41 -27 -79 -33 -83 -20 -15 -96 -33 -109 -26 -6 4
-36 25 -65 47 -48 36 -54 39 -81 27 -16 -6 -39 -22 -51 -35 l-22 -24 27 -75
27 -75 -32 -40 -33 -40 -85 -3 -85 -3 -18 -53 -18 -53 70 -46 69 -46 0 -52 0
-52 -69 -46 -69 -46 13 -46 c8 -25 17 -50 20 -55 3 -6 44 -10 90 -10 l83 0 30
-41 30 -41 -24 -64 c-13 -36 -24 -73 -24 -83 0 -17 68 -71 90 -71 5 0 37 21
69 46 l59 46 54 -16 53 -15 24 -81 24 -80 59 0 c66 0 64 -2 93 102 15 54 18
58 56 68 22 6 46 13 52 16 7 2 43 -18 81 -46 l68 -50 32 22 c69 47 67 41 36
126 l-28 76 32 43 31 42 86 1 86 0 20 53 19 54 -67 44 -67 44 -4 54 -3 54 68
45 c37 25 67 52 67 61 0 9 -9 35 -20 59 l-19 42 -84 0 -84 0 -28 40 -28 40 28
76 28 76 -29 23 c-64 52 -66 52 -134 0 -64 -49 -76 -51 -142 -26 -23 8 -31 23
-51 88 l-23 78 -61 3 -61 3 -23 -76z m180 -395 c72 -36 121 -116 121 -196 0
-16 -12 -53 -26 -82 -100 -202 -413 -132 -414 92 0 160 173 261 319 186z"/>
<path d="M3329 5597 c-41 -27 -59 -60 -59 -107 0 -76 68 -137 143 -127 54 7
89 35 107 85 41 117 -89 218 -191 149z"/>
<path d="M4397 5779 c-5 -18 -11 -21 -39 -16 -37 5 -72 -8 -62 -24 8 -13 -26
-50 -38 -42 -17 9 -28 -20 -22 -54 5 -25 2 -34 -10 -39 -9 -3 -16 -16 -16 -29
0 -13 7 -26 16 -29 12 -5 15 -14 10 -40 -5 -24 -2 -37 9 -46 8 -7 15 -9 15 -5
0 5 9 0 20 -10 12 -10 18 -25 16 -32 -7 -17 31 -37 47 -25 14 11 57 -2 57 -18
0 -5 11 -10 25 -10 14 0 25 5 25 10 0 15 43 29 56 19 15 -12 46 0 40 16 -6 16
34 54 50 48 15 -5 28 27 16 39 -13 13 -2 59 14 65 17 6 19 44 2 41 -14 -4 -28
43 -16 58 11 16 -2 46 -17 40 -15 -6 -58 37 -48 48 13 13 -20 24 -54 19 -29
-5 -35 -2 -40 16 -7 29 -49 29 -56 0z m103 -62 c49 -26 90 -90 90 -140 0 -46
-35 -109 -77 -137 -79 -54 -190 -22 -233 66 -26 53 -25 91 3 144 26 50 90 90
142 90 18 0 51 -10 75 -23z"/>
<path d="M4250 5324 c-7 -18 -16 -25 -28 -21 -45 13 -46 12 -52 -23 -4 -29
-10 -36 -32 -38 -31 -4 -35 -14 -13 -32 20 -16 19 -46 -1 -54 -22 -8 -12 -29
17 -36 18 -5 24 -13 24 -35 1 -32 18 -43 40 -25 17 14 45 -2 45 -26 0 -8 9
-14 20 -14 11 0 20 6 20 14 0 22 29 41 42 28 7 -7 20 -12 29 -12 13 0 17 8 15
33 -1 28 3 32 26 35 33 4 44 29 17 37 -22 7 -26 43 -4 51 24 10 18 34 -9 34
-26 0 -41 26 -31 52 7 17 -21 33 -30 18 -12 -20 -45 -10 -51 15 -8 33 -32 32
-44 -1z"/>
<path d="M2165 5332 c-26 -6 -31 -13 -35 -47 -5 -37 -8 -41 -63 -64 l-57 -24
-28 26 -28 27 -47 -36 c-26 -21 -61 -55 -77 -78 l-30 -40 27 -28 26 -28 -24
-57 c-23 -54 -27 -58 -64 -63 -36 -5 -40 -8 -48 -45 -8 -39 -3 -127 9 -159 4
-11 19 -16 44 -16 36 0 38 -2 59 -57 l22 -56 -27 -28 -27 -28 32 -40 c38 -48
110 -111 126 -111 6 0 22 11 34 24 l22 23 57 -23 c55 -22 57 -24 60 -63 l3
-40 63 -6 c34 -4 82 -3 107 2 42 8 44 10 47 48 3 39 5 41 60 62 l57 22 25 -24
c15 -14 30 -25 34 -25 11 0 126 111 138 133 8 15 4 25 -16 46 l-25 26 22 57
c21 55 23 57 62 60 38 3 40 4 48 48 4 25 5 73 2 107 l-6 62 -40 3 c-39 3 -41
5 -63 60 l-23 57 23 22 c13 12 24 27 24 32 0 16 -67 93 -111 127 l-40 33 -29
-28 -29 -27 -55 23 c-54 22 -56 24 -56 60 0 26 -5 39 -17 44 -27 10 -135 15
-168 7z m183 -301 c50 -26 105 -89 120 -140 26 -87 5 -185 -54 -245 -46 -48
-85 -67 -150 -73 -71 -8 -134 11 -184 54 -150 129 -99 364 91 422 48 15 129 6
177 -18z"/>
<path d="M4602 5033 c-19 -4 -23 -10 -20 -35 3 -29 1 -30 -64 -47 l-67 -17
-11 27 -12 27 -36 -21 c-21 -11 -47 -28 -59 -38 -20 -15 -21 -18 -8 -29 22
-19 18 -31 -28 -81 -39 -42 -45 -45 -62 -33 -10 8 -22 14 -25 14 -7 0 -60 -93
-60 -104 0 -4 12 -11 26 -16 19 -8 24 -15 19 -28 -3 -9 -11 -38 -17 -64 -10
-43 -14 -48 -40 -48 -27 0 -28 -1 -28 -55 0 -54 1 -55 28 -55 26 0 30 -5 40
-47 6 -27 14 -56 17 -65 5 -13 0 -20 -19 -28 -14 -5 -26 -12 -26 -16 0 -3 12
-28 27 -55 27 -51 42 -59 63 -34 10 12 19 8 56 -33 47 -51 52 -63 29 -82 -13
-11 -12 -14 8 -29 12 -10 38 -27 59 -38 l36 -21 12 27 11 27 67 -17 c65 -16
67 -18 64 -47 -3 -28 0 -31 37 -37 58 -10 79 0 83 37 3 29 7 33 53 44 28 7 60
15 73 19 12 4 22 3 22 -2 0 -5 6 -17 13 -27 12 -17 16 -16 59 10 46 28 46 29
32 54 -15 24 -14 27 36 79 49 51 51 53 70 36 24 -21 29 -18 60 41 16 30 21 48
14 51 -35 12 -44 28 -34 58 5 17 12 47 15 68 6 34 8 37 40 37 35 0 35 0 35 45
0 45 0 45 -35 45 -32 0 -34 3 -40 38 -3 20 -10 51 -15 67 -10 30 -1 46 34 58
11 4 -29 93 -47 104 -5 3 -17 -3 -28 -13 -19 -17 -21 -16 -70 37 -48 52 -50
55 -35 79 14 25 14 27 -32 54 -43 26 -47 27 -59 11 -7 -10 -14 -23 -16 -29 -3
-8 -11 -8 -28 1 -13 7 -44 16 -69 20 -40 8 -45 12 -48 38 -5 43 -28 52 -100
38z m173 -158 c133 -53 212 -133 255 -259 105 -308 -184 -620 -490 -527 -92
28 -134 55 -198 126 -70 80 -97 153 -97 270 0 117 27 190 97 270 62 68 104 97
189 124 74 25 178 23 244 -4z"/>
<path d="M4552 4685 c-115 -59 -161 -186 -108 -300 72 -157 276 -180 389 -45
57 67 61 191 10 264 -46 66 -100 97 -174 103 -55 4 -71 1 -117 -22z"/>
<path d="M3816 4794 c-4 -11 -14 -15 -32 -11 -20 3 -27 -1 -35 -20 -5 -14 -19
-27 -30 -30 -14 -4 -19 -12 -16 -24 3 -10 -2 -27 -10 -38 -12 -18 -12 -24 0
-42 8 -11 13 -28 10 -38 -3 -12 2 -20 16 -24 11 -3 25 -16 30 -30 8 -19 15
-23 35 -20 18 4 28 0 32 -11 8 -21 30 -21 38 0 4 12 13 14 31 10 21 -5 27 -2
35 20 6 14 19 28 30 31 15 4 18 11 14 28 -3 13 1 28 11 39 15 15 15 17 0 32
-10 11 -14 26 -11 39 4 17 1 24 -14 28 -11 3 -24 17 -30 31 -8 22 -14 25 -40
20 -23 -5 -30 -3 -30 10 0 21 -26 21 -34 0z m69 -40 c85 -40 84 -168 -1 -209
-43 -20 -73 -19 -108 4 -55 36 -71 102 -41 161 28 55 90 73 150 44z"/>
<path d="M2561 4290 c-11 -34 -38 -39 -75 -15 -21 14 -24 14 -36 0 -9 -11 -10
-22 -3 -38 15 -31 -6 -57 -44 -57 -41 0 -51 -33 -17 -55 31 -20 31 -48 -1 -69
-20 -13 -23 -20 -15 -35 6 -13 17 -17 30 -14 34 9 53 -16 46 -59 -8 -46 10
-58 48 -33 31 20 61 8 70 -30 4 -16 13 -25 26 -25 13 0 22 9 26 25 9 38 39 50
70 30 38 -25 56 -13 48 30 -8 44 10 69 42 61 17 -5 26 -1 34 14 9 16 6 22 -15
36 -32 21 -32 43 2 69 31 26 25 42 -22 51 -37 7 -51 30 -40 64 4 12 1 27 -5
35 -11 13 -16 12 -39 -3 -34 -24 -57 -18 -70 19 -14 39 -46 39 -60 -1z m69
-135 c52 -27 50 -95 -4 -130 -32 -21 -71 -10 -99 27 -26 34 -15 83 21 103 35
18 47 18 82 0z"/>
<path d="M2060 4206 c0 -16 -41 -29 -63 -20 -21 8 -57 -13 -51 -29 6 -16 -31
-51 -44 -43 -13 8 -33 -39 -22 -50 13 -13 0 -54 -16 -54 -8 0 -14 -10 -14 -25
0 -15 6 -25 14 -25 17 0 31 -49 17 -63 -14 -14 6 -50 24 -43 17 6 49 -29 42
-47 -6 -17 36 -40 49 -27 13 13 64 0 64 -16 0 -8 10 -14 25 -14 15 0 25 6 25
14 0 16 51 29 64 16 13 -13 46 7 40 23 -6 16 32 52 54 52 13 0 17 8 15 30 -2
46 6 75 22 75 8 0 15 9 15 20 0 11 -6 20 -14 20 -8 0 -17 7 -20 16 -9 24 -7
54 4 54 6 0 5 9 -1 24 -7 15 -17 22 -26 19 -20 -8 -54 27 -48 47 6 18 -19 35
-36 24 -16 -10 -69 7 -69 22 0 8 -10 14 -25 14 -15 0 -25 -6 -25 -14z m100
-66 c121 -62 133 -227 22 -304 -53 -37 -141 -37 -195 -1 -82 57 -102 176 -40
253 56 71 137 91 213 52z"/>
<path d="M4653 3883 c-10 -26 -25 -34 -54 -27 -21 4 -31 -1 -48 -22 -16 -20
-18 -30 -10 -40 13 -16 -5 -54 -26 -54 -24 0 -20 -71 4 -77 22 -6 35 -42 21
-58 -13 -15 42 -69 56 -55 14 14 51 1 57 -21 7 -26 62 -26 76 0 13 24 40 34
55 22 8 -7 20 -2 39 15 21 19 25 30 21 54 -5 23 -2 31 12 37 25 9 34 23 34 51
0 16 -7 26 -20 29 -21 6 -37 44 -25 63 11 17 -35 61 -57 54 -27 -8 -55 4 -61
26 -7 26 -65 28 -74 3z m105 -116 c15 -14 22 -32 22 -58 0 -51 -8 -67 -41 -84
-43 -23 -77 -18 -110 14 -87 87 38 211 129 128z"/>
<path d="M2963 3869 c-29 -8 -33 -14 -33 -42 0 -30 -5 -35 -49 -54 -49 -20
-50 -20 -67 -2 -28 31 -54 22 -111 -34 -56 -57 -65 -83 -34 -111 18 -17 18
-18 -2 -67 -19 -44 -24 -49 -54 -49 -30 0 -33 -4 -44 -42 -7 -29 -8 -61 -3
-98 9 -54 10 -55 45 -58 32 -3 37 -8 56 -53 l22 -50 -21 -19 c-29 -27 -18 -58
41 -113 54 -51 79 -57 105 -28 17 18 18 18 66 -2 44 -19 49 -24 52 -56 3 -34
5 -36 51 -45 26 -4 68 -4 95 0 45 9 47 11 50 44 3 31 9 37 52 57 48 21 49 21
66 2 28 -31 54 -22 111 34 56 57 65 83 34 111 -19 17 -19 18 2 66 20 43 26 49
57 52 33 3 35 5 44 51 4 26 4 68 0 95 -9 45 -11 47 -45 50 -32 3 -37 8 -56 52
-20 48 -20 49 -2 66 29 26 23 51 -28 105 -55 59 -86 70 -113 41 l-19 -21 -51
22 c-45 19 -50 24 -50 54 0 29 -4 33 -37 42 -45 13 -86 13 -130 0z m138 -254
c82 -29 149 -122 149 -206 0 -46 -29 -113 -67 -151 -37 -38 -105 -68 -153 -68
-48 0 -116 30 -153 68 -38 38 -67 105 -67 151 0 82 67 176 145 205 53 19 93
19 146 1z"/>
<path d="M4570 3455 c0 -18 -21 -20 -38 -3 -9 9 -12 6 -12 -16 0 -23 -3 -26
-20 -21 -18 6 -20 3 -14 -19 4 -19 2 -28 -10 -32 -23 -9 -20 -21 6 -28 18 -4
20 -8 10 -18 -18 -18 -15 -28 8 -28 14 0 20 -7 20 -21 0 -16 4 -19 21 -14 14
5 25 1 34 -12 13 -17 14 -17 21 0 5 14 13 17 31 12 19 -4 23 -2 21 12 -2 12 4
19 20 21 20 3 21 6 10 19 -10 13 -9 18 7 29 18 14 18 14 -1 28 -15 12 -17 17
-6 27 18 19 15 29 -10 26 -14 -1 -23 4 -24 13 -2 30 -4 32 -20 19 -13 -11 -17
-10 -25 4 -12 21 -29 22 -29 2z m69 -61 c28 -35 26 -59 -4 -90 -33 -33 -80
-30 -108 8 -54 73 56 153 112 82z"/>
<path d="M2486 3324 c-4 -11 -14 -15 -32 -11 -20 3 -27 -1 -34 -19 -5 -13 -16
-24 -25 -24 -14 0 -20 -13 -16 -34 1 -6 -3 -21 -10 -34 -11 -19 -11 -25 0 -32
8 -5 12 -17 8 -30 -4 -16 -1 -24 12 -27 10 -3 24 -16 30 -29 8 -18 16 -24 30
-19 11 3 25 -1 34 -10 20 -19 33 -19 41 1 3 8 14 14 23 13 24 -4 85 55 77 74
-3 8 3 22 12 32 17 16 17 18 0 27 -13 7 -16 17 -11 35 5 20 1 26 -15 30 -12 3
-25 16 -30 28 -7 17 -14 21 -34 18 -19 -4 -26 -1 -26 11 0 21 -26 21 -34 0z
m97 -64 c40 -45 38 -101 -7 -146 -27 -27 -42 -34 -74 -34 -78 0 -127 70 -102
146 26 77 127 97 183 34z"/>
<path d="M3584 3253 c-7 -24 -19 -30 -29 -13 -10 17 -25 11 -25 -10 0 -13 -7
-20 -20 -20 -22 0 -26 -10 -9 -27 8 -8 5 -15 -11 -26 l-22 -15 22 -12 c16 -9
19 -15 11 -23 -17 -17 -13 -27 9 -27 13 0 20 -7 20 -20 0 -22 10 -26 27 -9 8
8 14 5 23 -12 l12 -22 18 23 c11 15 19 19 24 11 11 -18 26 -13 26 9 0 13 7 20
20 20 21 0 27 15 10 25 -17 10 -11 22 13 29 l22 7 -22 11 c-25 12 -29 23 -13
33 17 10 11 25 -10 25 -13 0 -20 7 -20 20 0 21 -15 27 -25 10 -10 -16 -21 -12
-33 13 l-11 22 -7 -22z m60 -58 c15 -14 26 -35 26 -50 0 -33 -42 -75 -75 -75
-14 0 -37 11 -50 25 -14 13 -25 36 -25 50 0 33 41 75 73 75 13 0 36 -11 51
-25z"/>
<path d="M4247 3163 c-24 -6 -57 -39 -57 -56 0 -7 -5 -18 -11 -24 -8 -8 -8
-13 0 -17 6 -4 11 -14 11 -22 0 -18 38 -56 50 -49 5 3 11 1 15 -5 17 -27 103
28 97 62 -2 10 2 18 9 18 9 0 9 3 0 14 -6 8 -10 18 -9 22 5 14 -37 51 -63 56
-13 3 -32 3 -42 1z m71 -30 c48 -41 18 -133 -44 -133 -36 0 -74 37 -74 73 0
37 7 49 35 65 29 17 60 14 83 -5z"/>
<path d="M3422 2968 c-10 -39 -40 -48 -78 -23 -36 23 -57 5 -48 -41 8 -43 -9
-64 -51 -64 -43 0 -55 -33 -19 -56 31 -21 31 -57 0 -78 -36 -23 -24 -56 19
-56 44 0 57 -18 49 -67 -5 -33 -3 -41 11 -47 11 -4 25 0 36 10 32 29 67 13 83
-38 3 -11 15 -18 29 -18 19 0 26 8 33 33 11 38 42 47 80 22 36 -23 57 -5 48
41 -8 43 9 64 51 64 46 0 53 31 14 59 -37 27 -37 44 0 70 40 29 32 61 -14 61
-42 0 -59 21 -51 64 9 45 -15 67 -43 42 -11 -10 -31 -16 -47 -14 -22 2 -30 10
-36 36 -7 25 -14 32 -33 32 -19 0 -26 -7 -33 -32z m77 -153 c32 -16 41 -33 41
-75 0 -42 -29 -70 -77 -77 -35 -5 -45 -2 -67 20 -41 42 -32 117 17 137 32 13
55 12 86 -5z"/>
<path d="M2930 2456 c0 -17 -34 -31 -51 -21 -17 11 -51 -26 -45 -50 6 -24 -2
-39 -26 -48 -23 -8 -25 -67 -3 -67 17 0 34 -30 28 -48 -8 -22 27 -52 53 -46
16 4 26 0 36 -15 15 -25 78 -30 78 -7 0 17 24 27 45 19 20 -7 57 26 50 45 -8
22 4 52 21 52 9 0 14 11 14 35 0 23 -5 35 -14 35 -17 0 -27 24 -19 45 9 24
-27 57 -54 50 -16 -4 -28 1 -40 15 -20 23 -73 28 -73 6z m87 -98 c31 -29 31
-77 -2 -108 -45 -42 -115 -23 -129 36 -7 26 15 79 36 87 31 13 73 6 95 -15z"/>
<path d="M3265 2440 c-3 -5 -17 -10 -31 -10 -14 0 -24 -6 -24 -14 0 -8 -7 -16
-15 -20 -8 -3 -15 -16 -15 -30 0 -13 -6 -27 -12 -29 -10 -4 -10 -7 0 -15 8 -5
12 -15 10 -23 -7 -32 52 -70 107 -69 48 0 55 2 55 15 0 8 9 19 20 25 12 6 17
16 13 26 -3 9 0 20 7 24 11 7 11 11 1 24 -7 8 -11 21 -9 27 6 17 -39 59 -62
59 -11 0 -20 5 -20 10 0 6 -4 10 -9 10 -6 0 -13 -4 -16 -10z m70 -45 c34 -33
34 -93 1 -124 -35 -33 -93 -31 -123 4 -71 82 46 197 122 120z"/>
<path d="M3579 2399 c-7 -14 -17 -19 -29 -16 -23 6 -46 -19 -42 -44 2 -10 -6
-23 -17 -29 -12 -6 -21 -19 -21 -30 0 -11 9 -24 21 -30 11 -6 19 -19 17 -29
-4 -26 19 -50 42 -44 12 3 22 -1 26 -11 7 -19 50 -22 56 -4 3 7 16 13 31 13
34 2 56 21 50 45 -3 12 1 22 11 26 9 4 16 18 16 34 0 16 -7 30 -16 34 -10 4
-14 14 -11 26 5 19 -24 55 -36 44 -10 -10 -47 7 -47 22 0 22 -38 17 -51 -7z"/>
<path d="M3946 2374 c-4 -11 -13 -14 -27 -11 -19 5 -20 3 -14 -31 5 -30 4 -35
-6 -24 -7 6 -19 12 -27 12 -12 0 -12 -3 -2 -15 9 -11 10 -18 1 -29 -9 -11 -7
-15 8 -19 11 -2 21 -15 24 -28 l4 -24 8 23 c4 12 12 22 17 22 6 0 8 -6 5 -13
-3 -7 1 -21 9 -32 11 -15 14 -16 14 -3 0 21 24 30 40 15 10 -10 11 -4 6 26 -5
27 -4 37 4 32 5 -3 8 -10 5 -15 -3 -4 4 -6 15 -3 16 4 18 8 9 19 -9 11 -9 17
0 28 9 11 7 15 -9 19 -12 3 -20 13 -20 26 0 15 -4 19 -16 14 -10 -4 -22 1 -29
11 -12 15 -13 15 -19 0z"/>
<path d="M2884 2101 c-49 -12 -117 -54 -133 -82 -30 -54 12 -114 102 -146 48
-16 98 -18 587 -18 l535 0 52 23 c65 30 94 61 95 103 1 26 -6 39 -37 66 -72
62 -83 63 -654 62 -284 -1 -530 -4 -547 -8z"/>
<path d="M2885 1791 c-47 -12 -112 -49 -129 -73 -40 -56 2 -122 96 -155 49
-17 95 -18 588 -18 l535 0 50 23 c72 33 95 58 95 103 0 31 -6 43 -37 69 -72
59 -84 60 -652 59 -284 -1 -529 -4 -546 -8z"/>
<path d="M2870 1481 c-164 -51 -188 -159 -48 -222 l53 -24 520 -3 c463 -3 527
-1 583 14 126 33 168 113 97 180 -67 63 -80 64 -659 63 -287 0 -532 -4 -546
-8z"/>
<path d="M2980 1127 c0 -39 30 -139 52 -176 50 -82 131 -156 213 -192 62 -28
177 -40 261 -28 190 27 349 182 370 362 l7 57 -452 0 -451 0 0 -23z"/>
</g>
</svg>
